<svg width="1199" height="53" viewBox="0 0 1199 53" fill="none" xmlns="http://www.w3.org/2000/svg">
<path d="M82.5977 40.4414V41.3398C82.5977 42.4076 82.4642 43.3646 82.1973 44.2109C81.9303 45.0573 81.5462 45.7767 81.0449 46.3691C80.5436 46.9616 79.9414 47.4141 79.2383 47.7266C78.5417 48.0391 77.7604 48.1953 76.8945 48.1953C76.0547 48.1953 75.2832 48.0391 74.5801 47.7266C73.8835 47.4141 73.278 46.9616 72.7637 46.3691C72.2559 45.7767 71.862 45.0573 71.582 44.2109C71.3021 43.3646 71.1621 42.4076 71.1621 41.3398V40.4414C71.1621 39.3737 71.2988 38.4199 71.5723 37.5801C71.8522 36.7337 72.2461 36.0143 72.7539 35.4219C73.2617 34.8229 73.8639 34.3672 74.5605 34.0547C75.2637 33.7422 76.0352 33.5859 76.875 33.5859C77.7409 33.5859 78.5221 33.7422 79.2188 34.0547C79.9219 34.3672 80.5241 34.8229 81.0254 35.4219C81.5332 36.0143 81.9206 36.7337 82.1875 37.5801C82.4609 38.4199 82.5977 39.3737 82.5977 40.4414ZM80.7324 41.3398V40.4219C80.7324 39.5755 80.6445 38.8268 80.4688 38.1758C80.2995 37.5247 80.0488 36.9779 79.7168 36.5352C79.3848 36.0924 78.9779 35.7572 78.4961 35.5293C78.0208 35.3014 77.4805 35.1875 76.875 35.1875C76.2891 35.1875 75.7585 35.3014 75.2832 35.5293C74.8145 35.7572 74.4108 36.0924 74.0723 36.5352C73.7402 36.9779 73.4831 37.5247 73.3008 38.1758C73.1185 38.8268 73.0273 39.5755 73.0273 40.4219V41.3398C73.0273 42.1927 73.1185 42.9479 73.3008 43.6055C73.4831 44.2565 73.7435 44.8066 74.082 45.2559C74.4271 45.6986 74.834 46.0339 75.3027 46.2617C75.778 46.4896 76.3086 46.6035 76.8945 46.6035C77.5065 46.6035 78.0501 46.4896 78.5254 46.2617C79.0007 46.0339 79.401 45.6986 79.7266 45.2559C80.0586 44.8066 80.3092 44.2565 80.4785 43.6055C80.6478 42.9479 80.7324 42.1927 80.7324 41.3398ZM92.3535 33.7812V48H90.4688V33.7812H92.3535ZM101.113 33.7812L94.9414 41.6035H91.6016L91.3086 40.041H93.8184L98.7793 33.7812H101.113ZM99.2188 48L93.877 41.3594L94.9316 39.709L101.523 48H99.2188ZM113.867 40.4414V41.3398C113.867 42.4076 113.734 43.3646 113.467 44.2109C113.2 45.0573 112.816 45.7767 112.314 46.3691C111.813 46.9616 111.211 47.4141 110.508 47.7266C109.811 48.0391 109.03 48.1953 108.164 48.1953C107.324 48.1953 106.553 48.0391 105.85 47.7266C105.153 47.4141 104.548 46.9616 104.033 46.3691C103.525 45.7767 103.132 45.0573 102.852 44.2109C102.572 43.3646 102.432 42.4076 102.432 41.3398V40.4414C102.432 39.3737 102.568 38.4199 102.842 37.5801C103.122 36.7337 103.516 36.0143 104.023 35.4219C104.531 34.8229 105.133 34.3672 105.83 34.0547C106.533 33.7422 107.305 33.5859 108.145 33.5859C109.01 33.5859 109.792 33.7422 110.488 34.0547C111.191 34.3672 111.794 34.8229 112.295 35.4219C112.803 36.0143 113.19 36.7337 113.457 37.5801C113.73 38.4199 113.867 39.3737 113.867 40.4414ZM112.002 41.3398V40.4219C112.002 39.5755 111.914 38.8268 111.738 38.1758C111.569 37.5247 111.318 36.9779 110.986 36.5352C110.654 36.0924 110.247 35.7572 109.766 35.5293C109.29 35.3014 108.75 35.1875 108.145 35.1875C107.559 35.1875 107.028 35.3014 106.553 35.5293C106.084 35.7572 105.68 36.0924 105.342 36.5352C105.01 36.9779 104.753 37.5247 104.57 38.1758C104.388 38.8268 104.297 39.5755 104.297 40.4219V41.3398C104.297 42.1927 104.388 42.9479 104.57 43.6055C104.753 44.2565 105.013 44.8066 105.352 45.2559C105.697 45.6986 106.104 46.0339 106.572 46.2617C107.048 46.4896 107.578 46.6035 108.164 46.6035C108.776 46.6035 109.32 46.4896 109.795 46.2617C110.27 46.0339 110.671 45.6986 110.996 45.2559C111.328 44.8066 111.579 44.2565 111.748 43.6055C111.917 42.9479 112.002 42.1927 112.002 41.3398ZM117.285 33.7812H119.111L123.77 45.373L128.418 33.7812H130.254L124.473 48H123.047L117.285 33.7812ZM116.689 33.7812H118.301L118.564 42.4531V48H116.689V33.7812ZM129.229 33.7812H130.84V48H128.965V42.4531L129.229 33.7812ZM145.01 33.7812V48H143.135V35.3242H136.123V48H134.238V33.7812H145.01ZM153.691 35.041L148.984 48H147.061L152.48 33.7812H153.721L153.691 35.041ZM157.637 48L152.92 35.041L152.891 33.7812H154.131L159.57 48H157.637ZM157.393 42.7363V44.2793H149.404V42.7363H157.393ZM170.762 39.8945V41.4277H163.066V39.8945H170.762ZM163.359 33.7812V48H161.475V33.7812H163.359ZM172.402 33.7812V48H170.527V33.7812H172.402ZM177.715 44.7383L184.717 33.7812H186.602V48H184.717V37.0332L177.715 48H175.84V33.7812H177.715V44.7383ZM191.992 44.7383L198.994 33.7812H200.879V48H198.994V37.0332L191.992 48H190.117V33.7812H191.992V44.7383Z" fill="white" fill-opacity="0.7"/>
<circle cx="23" cy="23" r="22.5" stroke="#E0E0E0" stroke-opacity="0.5"/>
<path d="M32.1562 21.9062V23.3438C32.1562 25.0521 31.9427 26.5833 31.5156 27.9375C31.0885 29.2917 30.474 30.4427 29.6719 31.3906C28.8698 32.3385 27.9062 33.0625 26.7812 33.5625C25.6667 34.0625 24.4167 34.3125 23.0312 34.3125C21.6875 34.3125 20.4531 34.0625 19.3281 33.5625C18.2135 33.0625 17.2448 32.3385 16.4219 31.3906C15.6094 30.4427 14.9792 29.2917 14.5312 27.9375C14.0833 26.5833 13.8594 25.0521 13.8594 23.3438V21.9062C13.8594 20.1979 14.0781 18.6719 14.5156 17.3281C14.9635 15.974 15.5938 14.8229 16.4062 13.875C17.2188 12.9167 18.1823 12.1875 19.2969 11.6875C20.4219 11.1875 21.6562 10.9375 23 10.9375C24.3854 10.9375 25.6354 11.1875 26.75 11.6875C27.875 12.1875 28.8385 12.9167 29.6406 13.875C30.4531 14.8229 31.0729 15.974 31.5 17.3281C31.9375 18.6719 32.1562 20.1979 32.1562 21.9062ZM29.1719 23.3438V21.875C29.1719 20.5208 29.0312 19.3229 28.75 18.2812C28.4792 17.2396 28.0781 16.3646 27.5469 15.6562C27.0156 14.9479 26.3646 14.4115 25.5938 14.0469C24.8333 13.6823 23.9688 13.5 23 13.5C22.0625 13.5 21.2135 13.6823 20.4531 14.0469C19.7031 14.4115 19.0573 14.9479 18.5156 15.6562C17.9844 16.3646 17.5729 17.2396 17.2812 18.2812C16.9896 19.3229 16.8438 20.5208 16.8438 21.875V23.3438C16.8438 24.7083 16.9896 25.9167 17.2812 26.9688C17.5729 28.0104 17.9896 28.8906 18.5312 29.6094C19.0833 30.3177 19.7344 30.8542 20.4844 31.2188C21.2448 31.5833 22.0938 31.7656 23.0312 31.7656C24.0104 31.7656 24.8802 31.5833 25.6406 31.2188C26.401 30.8542 27.0417 30.3177 27.5625 29.6094C28.0938 28.8906 28.4948 28.0104 28.7656 26.9688C29.0365 25.9167 29.1719 24.7083 29.1719 23.3438Z" fill="#E0E0E0"/>
<rect x="70" y="23" width="1129" height="1" fill="#E0E0E0" fill-opacity="0.5"/>
</svg>
